<?xml version="1.0" encoding="UTF-8" standalone="no"?>
<!-- Created with Inkscape (http://www.inkscape.org/) -->

<svg
   width="183.19276mm"
   height="180mm"
   viewBox="0 0 183.19276 180"
   version="1.1"
   id="svg4910"
   inkscape:version="1.2.2 (732a01da63, 2022-12-09)"
   sodipodi:docname="ismigiliip_target.svg"
   xmlns:inkscape="http://www.inkscape.org/namespaces/inkscape"
   xmlns:sodipodi="http://sodipodi.sourceforge.net/DTD/sodipodi-0.dtd"
   xmlns="http://www.w3.org/2000/svg"
   xmlns:svg="http://www.w3.org/2000/svg">
  <sodipodi:namedview
     id="namedview4912"
     pagecolor="#ffffff"
     bordercolor="#000000"
     borderopacity="0.25"
     inkscape:showpageshadow="2"
     inkscape:pageopacity="0.0"
     inkscape:pagecheckerboard="0"
     inkscape:deskcolor="#d1d1d1"
     inkscape:document-units="mm"
     showgrid="false"
     inkscape:zoom="0.75455247"
     inkscape:cx="220.6606"
     inkscape:cy="324.69578"
     inkscape:window-width="1920"
     inkscape:window-height="1027"
     inkscape:window-x="-8"
     inkscape:window-y="-8"
     inkscape:window-maximized="1"
     inkscape:current-layer="layer1" />
  <defs
     id="defs4907" />
  <g
     inkscape:label="Layer 1"
     inkscape:groupmode="layer"
     id="layer1"
     transform="translate(-11.807226,-51.707531)">
    <g
       id="g12825"
       transform="translate(182.35535,103.79221)">
      <circle
         style="fill:#ffffff;fill-opacity:1;stroke:none;stroke-width:22.5834;stroke-linecap:round;stroke-dasharray:none;stroke-opacity:1"
         id="circle12800"
         cx="-77.355354"
         cy="37.915321"
         r="90" />
      <circle
         style="fill:#4121df;fill-opacity:1;stroke:none;stroke-width:20.0741;stroke-linecap:round;stroke-dasharray:none;stroke-opacity:1"
         id="circle12798"
         cx="-77.355354"
         cy="37.915321"
         r="80" />
      <circle
         style="fill:#ffffff;fill-opacity:1;stroke:none;stroke-width:17.5648;stroke-linecap:round;stroke-dasharray:none;stroke-opacity:1"
         id="circle12802"
         cx="-77.355354"
         cy="37.915321"
         r="70" />
      <circle
         style="fill:#4121df;fill-opacity:1;stroke:none;stroke-width:15.0556;stroke-linecap:round;stroke-dasharray:none;stroke-opacity:1"
         id="circle12804"
         cx="-77.355354"
         cy="37.915321"
         r="60" />
      <circle
         style="fill:#ffffff;fill-opacity:1;stroke:none;stroke-width:12.5463;stroke-linecap:round;stroke-dasharray:none;stroke-opacity:1"
         id="circle12806"
         cx="-77.355354"
         cy="37.915321"
         r="50" />
      <circle
         style="fill:#4121df;fill-opacity:1;stroke:none;stroke-width:10.0371;stroke-linecap:round;stroke-dasharray:none;stroke-opacity:1"
         id="circle12808"
         cx="-77.355354"
         cy="37.915321"
         r="40" />
      <circle
         style="fill:#ffffff;fill-opacity:1;stroke:none;stroke-width:7.52782;stroke-linecap:round;stroke-dasharray:none;stroke-opacity:1"
         id="circle12810"
         cx="-77.355354"
         cy="37.915321"
         r="30" />
      <circle
         style="fill:#4121df;fill-opacity:1;stroke:none;stroke-width:5.01855;stroke-linecap:round;stroke-dasharray:none;stroke-opacity:1"
         id="circle12812"
         cx="-77.355354"
         cy="37.915321"
         r="20" />
      <circle
         style="fill:#ffffff;fill-opacity:1;stroke:none;stroke-width:2.50927;stroke-linecap:round;stroke-dasharray:none;stroke-opacity:1"
         id="circle12814"
         cx="-77.355354"
         cy="37.915321"
         r="10" />
    </g>
    <g
       id="g3445"
       transform="matrix(1.2887139,0,0,1.2887139,-81.949059,-79.419795)">
      <path
         style="fill:#4020df;fill-opacity:1;stroke:#ffffff;stroke-width:3.12954;stroke-dasharray:none;stroke-opacity:1"
         d="m 74.446442,179.09186 c 20.433566,-6.72496 29.227758,-24.31334 45.781528,-30.0037 16.55377,-5.69037 33.88352,-4.65575 45.26422,2.84517 11.38073,7.50094 16.03649,25.86528 26.3826,26.89988 10.34608,1.0346 -5.69038,4.39711 -6.20768,6.20767 -0.51731,1.81056 -10.34611,12.15667 -28.96911,12.67398 -18.62299,0.51732 -58.972804,-10.08746 -71.646786,-9.57014 -12.673982,0.51731 -10.604772,-9.05286 -10.604772,-9.05286 z"
         id="path794-7" />
      <path
         id="path12045"
         style="fill:#ffffff;fill-opacity:1;stroke:none;stroke-width:3.12954;stroke-dasharray:none;stroke-opacity:1"
         d="m 141.83708,145.45949 c -4.94093,-0.0448 -10.08967,0.54674 -15.2465,1.77933 a 30.571293,30.571295 0 0 0 -12.09559,24.34897 30.571293,30.571295 0 0 0 9.72457,22.33437 c 12.22589,2.14633 24.39801,4.01697 32.47859,3.7925 1.68296,-0.0468 3.2915,-0.17601 4.83044,-0.36974 a 30.571293,30.571295 0 0 0 14.10922,-25.75713 30.571293,30.571295 0 0 0 -2.59724,-12.32847 c -2.21995,-2.8328 -4.66827,-5.42771 -7.5484,-7.32598 -6.40163,-4.21926 -14.68574,-6.39258 -23.65509,-6.47385 z" />
      <ellipse
         style="fill:#000000;fill-opacity:1;stroke-width:0.644849;stroke-linecap:round"
         id="path10465-0"
         cx="145.06638"
         cy="171.5876"
         rx="15.285753"
         ry="15.285754" />
    </g>
  </g>
</svg>
