<?xml version="1.0" encoding="UTF-8" standalone="no"?>
<!-- Created with Inkscape (http://www.inkscape.org/) -->

<svg
   width="64.706032mm"
   height="61.129616mm"
   viewBox="0 0 64.706032 61.129616"
   version="1.1"
   id="svg5"
   inkscape:version="1.2.2 (732a01da63, 2022-12-09)"
   sodipodi:docname="ismigiliip_stare.svg"
   xmlns:inkscape="http://www.inkscape.org/namespaces/inkscape"
   xmlns:sodipodi="http://sodipodi.sourceforge.net/DTD/sodipodi-0.dtd"
   xmlns="http://www.w3.org/2000/svg"
   xmlns:svg="http://www.w3.org/2000/svg">
  <sodipodi:namedview
     id="namedview7"
     pagecolor="#ffffff"
     bordercolor="#000000"
     borderopacity="0.25"
     inkscape:showpageshadow="2"
     inkscape:pageopacity="0.0"
     inkscape:pagecheckerboard="0"
     inkscape:deskcolor="#d1d1d1"
     inkscape:document-units="mm"
     showgrid="false"
     inkscape:zoom="3.0182099"
     inkscape:cx="126.06811"
     inkscape:cy="119.93864"
     inkscape:window-width="1920"
     inkscape:window-height="1027"
     inkscape:window-x="-8"
     inkscape:window-y="-8"
     inkscape:window-maximized="1"
     inkscape:current-layer="layer1" />
  <defs
     id="defs2" />
  <g
     inkscape:label="Layer 1"
     inkscape:groupmode="layer"
     id="layer1"
     transform="translate(-72.646983,-69.286167)">
    <path
       sodipodi:type="spiral"
       style="fill:none;fill-rule:evenodd;stroke:#4020df;stroke-width:4;stroke-linecap:round;stroke-dasharray:none;stroke-opacity:1"
       id="path3065"
       sodipodi:cx="73.888069"
       sodipodi:cy="106.36906"
       sodipodi:expansion="1"
       sodipodi:revolution="4.5"
       sodipodi:radius="32.214447"
       sodipodi:argument="-18.768652"
       sodipodi:t0="0"
       d="m 73.888069,106.36906 c 1.073265,0.087 0.412208,1.48967 -0.144635,1.78383 -1.509011,0.79717 -3.095172,-0.65536 -3.42304,-2.0731 -0.586479,-2.53602 1.603667,-4.75314 4.001581,-5.06225 3.519034,-0.45363 6.441535,2.55808 6.701444,5.93006 0.346419,4.49431 -3.513774,8.14178 -7.858526,8.34064 -5.467427,0.25025 -9.847937,-4.46986 -9.979849,-9.78699 -0.159764,-6.439768 5.426133,-11.557467 11.715472,-11.619056 7.411768,-0.07258 13.269101,6.382506 13.258253,13.643946 -0.01252,8.38362 -7.33895,14.98215 -15.572417,14.89745 -9.355388,-0.0962 -16.696184,-8.29544 -16.536658,-17.50089 0.178964,-10.327113 9.25198,-18.410934 19.429363,-18.175856 11.298823,0.26098 20.126231,10.208545 19.815062,21.357836 -0.34246,12.27052 -11.165135,21.84194 -23.286308,21.45426 -13.242206,-0.42352 -23.557973,-12.12174 -23.093467,-25.21478 0.50427,-14.213887 13.078372,-25.274264 27.143254,-24.732666 15.185574,0.584752 26.990772,14.035013 26.371872,29.071726 -0.66502,16.15726 -14.991666,28.70746 -31.0002,28.01107 -17.128942,-0.74512 -30.424282,-15.94832 -29.650276,-32.92867"
       transform="translate(32.90022,-8.3062089)" />
    <g
       id="g3445"
       transform="matrix(1.0873524,0,0,1.0873524,-48.795191,-87.326919)">
      <path
         style="fill:#4020df;fill-opacity:1;stroke:#ffffff;stroke-width:1.5;stroke-dasharray:none;stroke-opacity:1"
         d="m 112.49836,173.24954 c 9.79389,-3.2233 14.00898,-11.65348 21.94327,-14.38089 7.93429,-2.72742 16.2405,-2.23152 21.69532,1.3637 5.45483,3.59523 7.68635,12.39733 12.64528,12.89322 4.95892,0.49589 -2.72742,2.10755 -2.97536,2.97536 -0.24795,0.86781 -4.95893,5.82674 -13.88501,6.07469 -8.92607,0.24795 -28.2659,-4.83496 -34.34059,-4.58701 -6.07469,0.24795 -5.08291,-4.33907 -5.08291,-4.33907 z"
         id="path794-7" />
      <path
         id="path794-7-3"
         style="fill:#ffffff;fill-opacity:1;stroke:none;stroke-width:0.5;stroke-dasharray:none;stroke-opacity:1"
         d="m 144.79915,157.12943 c -1.11473,-0.0101 -2.25191,0.049 -3.40082,0.17415 -4.9794,1.10961 -9.24269,4.86979 -10.38748,10.15493 -1.07132,4.94593 1.03408,10.12514 5.07256,12.85141 1.37838,0.24289 2.75,0.47462 4.10362,0.69299 -5.90846,-1.30328 -9.46256,-7.50032 -8.1995,-13.33149 1.47508,-6.80993 8.60419,-10.90567 15.29468,-9.39478 7.61929,1.72066 12.18469,9.72336 10.43554,17.22273 -0.5807,2.48967 -1.76792,4.68024 -3.36207,6.48435 0.51946,-0.0681 1.02113,-0.15259 1.50585,-0.25011 1.31949,-1.73425 2.30377,-3.75703 2.82877,-6.0079 1.87221,-8.02695 -3.00353,-16.57552 -11.18743,-18.42368 -0.033,-0.007 -0.0662,-0.0124 -0.0992,-0.0196 -0.85124,-0.0926 -1.7205,-0.14495 -2.6045,-0.15296 z m -0.23357,5.99653 c -3.61153,-0.0697 -7.11406,2.38133 -7.62693,6.16035 -0.42934,3.16359 1.67076,6.5218 5.04672,6.80475 1.17484,0.0985 2.37126,-0.26021 3.29489,-0.96842 0.92364,-0.70821 1.57495,-1.79856 1.55495,-3.09386 -0.0119,-0.76939 -0.32588,-1.5559 -0.86765,-2.14251 -0.54177,-0.58661 -1.38713,-0.96261 -2.28875,-0.709 -0.49975,0.14057 -0.84005,0.49712 -1.0666,0.95498 -0.11328,0.22893 -0.19687,0.51109 -0.10542,0.82424 0.0914,0.31315 0.38603,0.56437 0.71675,0.66404 l 0.28939,-0.95704 c -0.0261,-0.008 -0.0208,-0.005 -0.0315,-0.008 -0.006,0.0277 -0.008,0.041 -0.0134,0.0217 -0.007,-0.0254 -0.0233,-0.0323 0.0134,-0.0217 0.004,-0.0194 0.009,-0.0426 0.0274,-0.0796 0.089,-0.17979 0.41617,-0.42856 0.44132,-0.43564 0.52083,-0.1465 0.9253,0.0363 1.28313,0.42375 0.35782,0.38744 0.59393,0.99014 0.60151,1.48053 0.0148,0.95812 -0.44584,1.73259 -1.16375,2.28306 -0.71792,0.55048 -1.69226,0.84429 -2.60346,0.76792 -2.74674,-0.23021 -4.497,-3.03445 -4.13877,-5.67408 0.4838,-3.56482 4.13993,-5.78345 7.59179,-5.20485 4.37835,0.73392 7.06456,5.25332 6.25801,9.5157 -0.91787,4.8507 -5.68263,7.92366 -10.44277,7.45639 1.42582,0.221 2.81225,0.41594 4.13463,0.57516 3.58026,-1.07598 6.54982,-3.93165 7.29051,-7.84603 0.90587,-4.7873 -2.10565,-9.85483 -7.0745,-10.68772 -0.37275,-0.0625 -0.74726,-0.0967 -1.12086,-0.10387 z m -17.79685,0.49506 c -0.49519,0.41721 -0.98952,0.84401 -1.48518,1.27641 -0.0725,0.25104 -0.14203,0.50402 -0.20464,0.76016 -1.09232,4.46904 -0.42683,9.07731 1.57303,12.9713 0.41033,0.0699 0.83578,0.14516 1.25832,0.21911 -2.17616,-3.82187 -2.95771,-8.46458 -1.86035,-12.95425 0.19138,-0.783 0.43234,-1.54123 0.71882,-2.27273 z m -7.39386,6.10454 c -0.32696,0.22936 -0.65989,0.45412 -0.99943,0.67386 0.0434,2.48066 0.4607,4.92414 1.2113,7.24917 0.34374,0.0267 0.71051,0.0621 1.09037,0.10283 -0.87663,-2.55771 -1.33008,-5.27339 -1.30224,-8.02586 z m 44.75335,0.16071 c 0.28486,2.4278 0.14666,4.93014 -0.47491,7.39232 -0.11546,0.45736 -0.24681,0.9068 -0.39067,1.34927 0.53784,-0.38133 0.98993,-0.75275 1.35857,-1.09193 9.7e-4,-0.004 0.002,-0.008 0.003,-0.0114 0.53351,-2.11337 0.72833,-4.25421 0.61857,-6.35724 -0.38007,-0.38772 -0.75022,-0.81813 -1.11466,-1.28106 z m 6.30711,3.7176 c -0.002,0.0426 -0.004,0.0851 -0.006,0.12765 0.0179,-0.0439 0.0205,-0.0865 0.006,-0.12765 z" />
    </g>
  </g>
</svg>
